<?xml version="1.0" encoding="UTF-8"?>
<svg id="_レイヤー_2" data-name="レイヤー 2" xmlns="http://www.w3.org/2000/svg" viewBox="0 0 802.26 231.47">
  <defs>
    <style>
      .cls-1 {
        fill: none;
      }

      .cls-2 {
        fill: #2ea7e0;
      }

      .cls-3 {
        fill: #f39f87;
        fill-rule: evenodd;
      }
    </style>
  </defs>
  <g id="_レイヤー_1-2" data-name="レイヤー 1">
    <g>
      <g>
        <g>
          <path class="cls-3" d="m316.72,137.47s-.01-.07-.02-.1c-.32-1.57-.34-3.18-.44-4.77-.1-1.34-.23-2.67-.36-4.01-.13-1.09-.29-2.18-.44-3.26-.16-1.23-.29-2.47-.51-3.7-.29-1.66-.66-3.3-.99-4.95-.32-1.59-.42-3.2-.51-4.83-.09-1.72-.24-3.43-.35-5.15-.08-1.1-.2-2.19-.23-3.29-.04-1.25,0-2.51-.01-3.76-.01-2.07-.19-4.15-.6-6.19-.31-1.56-.75-3.1-1.18-4.63-.22-.77-.54-1.52-.82-2.28-.26-.73-.67-1.42-.48-2.26.18-.84-.3-1.44-.87-1.93-.48-.4-.82-.82-.8-1.46v-.02c.09-.08.16-.16.24-.23.04-.04.07-.09.11-.12.34-.3.68-.6,1.03-.88.23-.19.27-.42.23-.69-.16-.86-.42-1.68-.89-2.42-.11-.17-.17-.39-.25-.59.15.04.24.12.33.2.53.54,1.18.93,1.9,1.2.97.38,1.94.79,2.92,1.17.38.16.62.12.84-.24.13-.21.21-.46.24-.71.04-.35.03-.71.03-1.06.02-.78.06-1.58.06-2.36,0-.6-.16-1.15-.56-1.63.51,1.07.4,2.18.32,3.29.08-1.11.19-2.22-.32-3.29h0c-.12-.38-.19-.79-.37-1.15-.13-.26-.25-.5-.31-.78-.04-.21-.13-.41-.21-.66.06-.19.41-.3.28-.66-.25-.76-.48-1.54-1.03-2.14-.48-.5-.79-1.04-.88-1.74-.15-.86-.75-1.47-1.33-2.07-.14-.15-.29-.32-.36-.5-.14-.37-.23-.76-.33-1.15-.36-1.28-1.16-2.25-2.28-2.92-.35-.21-.79-.26-1.2-.39,0,0,.02.01.02.02l-1.01-.19c.43-.32.55-.72.44-1.17-.13-.46-.32-.91-.47-1.38-.05-.21-.08-.44-.09-.67-.02-.17.04-.33.04-.49.02-.37.07-.74.08-1.1,0-.28-.01-.57-.07-.84-.15-.63-.37-1.25-.5-1.89-.08-.41-.06-.84-.08-1.26,0-.21.04-.43.08-.64.08-.34.24-.67.23-1-.04-1.03-.04-2.07-.23-3.08-.54-2.88-1.62-5.53-3.51-7.83-1.86-2.28-4.22-3.37-7.15-3.31-.15,0-.3-.03-.45-.08-.58-.24-1.17-.36-1.8-.4-.94-.06-1.86.14-2.78.27-1.76.24-3.22,1.08-4.5,2.26-1.03.95-1.87,2.08-2.57,3.31-.35.64-.65,1.33-.88,2.03-.37,1.11-.63,2.25-1.03,3.35-.54,1.49-.98,2.99-1.11,4.56-.04.46.01.94-.02,1.4-.1,1.17-.25,2.34-.1,3.52.09.83.31,1.59,1.28,1.79.1.02.2.08.29.11.02.14.05.24.07.35.04.4.19.78,0,1.22-.63,1.45-.75,2.99-.49,4.54.14.85.42,1.7.62,2.54.18.75.49,1.48.41,2.28-.13,1.27-.26,2.54-.35,3.82-.02.35-.22.75.16,1.06.03.03,0,.15,0,.23-.04.55-.12,1.1-.1,1.66.04,1,.14,1.99.61,2.91.13.25.22.53.31.8.22.72.39,1.46.89,2.06.54.66,1.22.98,2.09.79.2-.05.41-.2.6-.31,0-.03-.02-.07-.04-.09-.13.05-.26.11-.39.14-.51.15-.98,0-1.28-.37-.33-.42-.6-.92-.81-1.43-.46-1.15-.37-2.35-.3-3.56.03-.43.11-.87.16-1.22.37.1.69.21,1.02.28.52.1,1.04.16,1.54.26.08.02.21.1.24.18.35.73.67,1.47,1.02,2.2.21.46.42.89.28,1.42-.09.32-.1.66-.11.99,0,.19.06.4.16.54.34.46.37.85.08,1.32-.08.11-.15.23-.22.35-1.52,2.82-2.23,5.82-1.91,9.03.09.93.29,1.85,1.15,2.43-.02.09-.04.15-.06.21-.61,1.62-1.17,3.25-1.53,4.96-.22,1.08-.38,2.17-.57,3.26-.04.21-.1.41-.13.62-.27,1.51-.49,3.02-1.07,4.45-.44,1.06-.8,2.16-1.17,3.25-.57,1.68-1.03,3.39-1.21,5.17-.16,1.52-.58,2.95-1.25,4.31-.19.37-.37.74-.51,1.13-1,2.84-2.04,5.69-2.98,8.56-.65,1.95-1.15,3.94-1.09,6.02.02.61.05.67.63.83,1.65.5,3.16,1.32,4.66,2.14.19.11.36.23.3.5-.02.06.08.16.16.22.63.5,1.4.65,2.14.82.44.1.88.19,1.31.28-.04.41-.08.76-.1,1.11-.07,1.87-.14,3.73-.2,5.6-.02.85,0,1.69,0,2.54,0,2.4,0,4.8.02,7.2,0,1.28.12,2.58-.11,3.85-.09.5-.34,1.02-.1,1.5.31.65.27,1.31.25,1.98,0,.21.02.42.04.63.05.69.11,1.37.15,2.06,0,.11-.04.23-.08.34-.1.35-.27.68-.3,1.03-.03.5.04,1.01.04,1.53.03.9.01,1.81.34,2.68.2.54.32,1.14.61,1.61.27.43.73.74,1.1,1.1.08.09.18.16.22.27.18.54.52.98.87,1.39.14.16.36.29.57.32.48.08.97.14,1.45.15.74,0,1.49-.02,2.23-.07.34-.02.77-.03,1-.23.52-.45,1-.98,1.36-1.56.56-.9.58-2.16-.08-3-.27-.34-.56-.67-.82-.99-.74-.92-1.39-1.89-1.84-2.97-.15-.34-.26-.72-.48-.99-.46-.54-.69-1.17-.78-1.83-.12-.96-.12-1.95-.18-2.92,0-.2.03-.4.02-.6-.07-.57,0-1.11.28-1.63.1-.18.1-.45.09-.67-.03-.34-.18-.68-.15-1,.11-1.33.24-2.66.38-3.98.31-2.63.62-5.25.93-7.87.18-1.49.38-2.98.57-4.46.08-.63.2-1.26.31-1.92,1.31.24,2.63.32,3.82.9.18.09.39.14.58.15.58.06,1.16.14,1.73.12.87-.02,1.74-.11,2.64-.16.04.23.1.5.13.77.17,1.41.27,2.83.5,4.23.37,2.2.44,4.44.64,6.66.13,1.65.27,3.32.36,4.98.06.94.02,1.88.04,2.82,0,.36-.01.74.07,1.08.41,1.77.26,3.43-.87,4.93-.08.11-.21.19-.3.29-.15.19-.32.37-.43.58-.33.63-.42,1.42-1.26,1.66-.26.08-.28.34-.2.53.1.25,0,.41-.15.55-.38.36-.78.71-1.16,1.07-.47.45-1.01.86-1.14,1.56-.06.34-.05.69-.13,1.01-.22.96.18,1.7.84,2.31.25.23.63.38.97.42,1.07.11,2.11-.06,3.09-.53.73-.35,1.51-.65,2.09-1.26.68-.73,1.4-1.44,1.84-2.37.12-.25.29-.4.57-.17.04.04.16.04.21.02.53-.44,1.28-.71,1.25-1.59,0-.04.01-.08.03-.13.05-.57.14-1.14.15-1.7.02-.51-.04-1.02-.06-1.53-.02-.27-.02-.54-.08-.8-.03-.17-.25-.32-.25-.49-.01-.85-.04-1.71.04-2.55.05-.45.1-.87,0-1.31-.06-.3-.17-.61-.17-.91-.02-1.51-.04-3.02,0-4.53.06-2.4.19-4.8.26-7.19.07-2.6.1-5.2.14-7.81.01-.52,0-1.03,0-1.56.14,0,.19-.01.22,0,1.13.12,2.25.23,3.38.37,1.2.16,2.35.02,3.48-.44.73-.29,1.49-.51,2.25-.71.66-.18.67-.16.6-.84Z"/>
          <g>
            <path class="cls-2" d="m258.62,157.52c-.74-1.18-1.52-2.2-2.32-3.09-.79-.9-2.67-2.79-5.62-5.67-3.02-2.95-5.05-5.05-6.02-6.29-.99-1.23-1.48-2.26-1.48-3.07,0-.69.27-1.21.81-1.54.53-.34,1.31-.5,2.36-.5,2.98,0,5.73.9,8.26,2.7,1.24.88,2.1,1.32,2.55,1.32.37,0,.71-.13,1.01-.42.29-.29.45-.62.45-.97,0-1.14-1.28-2.2-3.84-3.19-3.26-1.23-6.35-1.85-9.29-1.85-3.98,0-7.51.95-10.57,2.86-1.86,1.14-3.3,2.53-4.33,4.16-1.04,1.63-1.57,3.34-1.57,5.12,0,2.06.77,4.2,2.28,6.42,1.51,2.23,4.83,6.08,9.96,11.57,2.08,2.26,3.44,3.8,4.04,4.61.62.8.88,1.48.92,2.07.21,2.77-1.76,3.98-1.76,3.98.12,0,.18,0,.29,0-19.22,9.98-48.6,18.52-80.41,18.52-49.46,0-91.83-17.02-100.45-36.52,8.28-.53,14.85-7.35,14.85-15.75s-7.1-15.83-15.85-15.83h-29.81v48.79h21.67v-17.11h6.47c8.18,20.83,52.02,36.42,103.12,36.42,34.95,0,67.11-7.22,86.41-19.04,1.1-.43,2.41-1.06,4.45-2.32,3.58-2.22,5.32-5.23,5.32-8.89,0-2.34-.64-4.51-1.89-6.51Zm-203.88-28.83h8.15c7.37,0,13.33,5.98,13.33,13.32s-5.97,13.35-13.33,13.35h-8.15v-26.67Z"/>
            <rect class="cls-2" x="88.92" y="147.53" width="17.34" height="27.44"/>
            <rect class="cls-2" x="116.43" y="147.53" width="17.34" height="27.44"/>
            <path class="cls-2" d="m160.95,174.97h.11v-31.31c1.55-1.3,2.98-2.28,4.32-2.94,1.35-.67,2.62-1,3.78-1,1.27,0,2.1.37,2.48,1.14.18.38.29.81.34,1.3.02.5.05,2.02.08,4.56l.03,11-.09,7.3-.12,9.94h18.15l-.1-8.33.07-16.54c0-3.9-.31-6.73-.91-8.46-.59-1.74-1.79-3.18-3.55-4.34-2.33-1.55-5.2-2.32-8.59-2.32-2.53,0-5.12.48-7.79,1.47-2.64.98-5.32,2.45-8.1,4.4v-4.9h-17.33v39.03h17.22Z"/>
            <path class="cls-2" d="m121.06,144.08h8.08c2.53,0,4.58-2.04,4.58-4.57s-2.06-4.56-4.58-4.56h-8.08c-2.51,0-4.55,2.05-4.55,4.56s2.04,4.57,4.55,4.57Z"/>
            <path class="cls-2" d="m93.56,144.08h8.07c2.53,0,4.58-2.04,4.58-4.57s-2.05-4.56-4.58-4.56h-8.07c-2.53,0-4.56,2.05-4.56,4.56s2.03,4.57,4.56,4.57Z"/>
            <path class="cls-2" d="m204.67,140.76c6.05,0,11.04-3.61,11.76-8.26.29.78.45,1.62.45,2.47,0,5.31-5.75,9.63-12.82,9.63-.93,0-1.68.75-1.68,1.67s.75,1.68,1.68,1.68c8.9,0,16.16-5.83,16.16-12.98,0-5.62-4.46-10.39-10.66-12.2-1.51-.53-3.17-.85-4.89-.85-6.57,0-11.89,4.21-11.89,9.42s5.32,9.41,11.89,9.41Z"/>
          </g>
          <g>
            <path class="cls-2" d="m442.67,140.92c-3.74-3.64-8.31-5.6-13.73-5.88-5.79-.28-10.79,1.68-14.95,5.86-2.14,2.14-3.75,4.61-4.8,7.38-1.24,3.3-1.59,6.67-1.07,10.11.66,4.42,2.57,8.24,5.77,11.42,1.9,1.9,4.09,3.38,6.56,4.4,3.02,1.26,6.13,1.77,9.35,1.52,2.32-.21,4.61-.81,6.86-1.84,2.24-1.01,4.18-2.33,5.79-3.96,2.36-2.35,4.08-5.11,5.14-8.27,1.21-3.56,1.38-7.17.53-10.79-.93-3.92-2.75-7.24-5.46-9.96Zm-1.68,27.36c-2.02,2.02-4.28,3.47-6.78,4.35-3.14,1.1-6.4,1.25-9.73.48-3.46-.82-6.35-2.41-8.7-4.75-.2-.2-.55-.58-1.04-1.14l25.58-25.42c.57.51.98.88,1.21,1.11,2.86,2.85,4.47,6.5,4.85,10.96.47,5.54-1.32,10.33-5.39,14.4Z"/>
            <path class="cls-2" d="m624.4,139.94c-3.58-2.66-7.64-4-12.15-4-2.68,0-5.29.51-7.75,1.54-.52.21-.95.55-1.43.79v-2.33h-18.26v51.14h18.26v-12.8c2.95,1.52,6,2.44,9.26,2.44,5.21-.08,9.84-1.91,13.87-5.54,4.28-3.91,6.42-8.82,6.42-14.73,0-3.02-.6-5.89-1.82-8.61-1.45-3.22-3.57-5.85-6.4-7.9Zm-11.04,34.5c-.76.04-1.32.07-1.65.07-3.07,0-5.91-1.11-8.64-2.79v-30.91c2.84-1.61,5.77-2.5,8.86-2.5.29,0,.79.02,1.53.07l-.1,36.07Z"/>
            <path class="cls-2" d="m636.98,116.44c-26.98-10.03-62.84-15.53-100.95-15.53-78.49,0-121.42,15.02-142.24,50.91h0c-3.28-5.47-6.43-11.12-9.48-16.96l-5.3-10.32c-.38.68-.78,1.43-1.22,2.26l-2.75,5.15-1.65,3.07-2.44,4.57-6.62,12.15c-1.84-3.94-4.32-9.83-7.48-17.69l-3.08-7.86h-22.36l.22.46c2.78,5.91,5.68,12.58,8.68,19.99l6.08,14.76,6.9,17.01,1.72-3.35,8.32-15.6,5.47-9.99,6.93,12.34,8.84,16.6,10.09-23.05h0c19.84-36.52,62.33-54.44,141.35-54.44,61.32,0,113.47,16.92,132.79,36.95-2.84-1.46-5.85-2.44-9.18-2.44-2.69,0-5.28.51-7.75,1.53-3.03,1.24-5.6,3.09-7.68,5.54-1.51,1.78-2.69,3.84-3.56,6.15-.88,2.31-1.31,4.62-1.31,6.9,0,3.33.75,6.49,2.23,9.47,1.66,3.37,4.07,6.06,7.23,8.01,3.44,2.11,7.08,3.17,10.91,3.17.37,0,.73-.09,1.1-.11v.11h19.21v-22.29s-.94-23.42-43.03-37.44Zm22.13,57.54c-4.03,0-7.76-1.45-11.19-4.33-4.24-3.58-6.35-8.24-6.35-13.99,0-2.87.56-5.49,1.71-7.87,1.45-3,3.64-5.42,6.54-7.22,3.02-1.87,6.2-2.79,9.51-2.79.27,0,.79.02,1.53.07l-.11,36.06c-.76.05-1.3.09-1.63.09Z"/>
            <path class="cls-2" d="m574.74,154.43c-.79-.89-2.67-2.77-5.63-5.66-3.02-2.96-5.04-5.05-6.01-6.29-.99-1.24-1.5-2.25-1.5-3.07,0-.7.29-1.21.81-1.54.53-.34,1.32-.51,2.36-.51,2.98,0,5.74.91,8.27,2.71,1.24.89,2.09,1.32,2.54,1.32.38,0,.71-.14,1.01-.43.31-.29.45-.6.45-.97,0-1.14-1.28-2.2-3.81-3.17-3.27-1.25-6.37-1.87-9.3-1.87-3.98,0-7.51.96-10.58,2.86-1.87,1.14-3.31,2.53-4.34,4.17-1.04,1.64-1.56,3.34-1.56,5.12,0,2.06.76,4.19,2.28,6.42,1.51,2.23,4.83,6.08,9.95,11.57,2.1,2.26,3.45,3.79,4.06,4.61.6.79.91,1.5.91,2.07s-.23,1.01-.66,1.32c-.44.3-1.1.44-1.99.44-1.9,0-3.95-.4-6.15-1.21-2.19-.79-3.88-1.76-5.08-2.89-.73-.71-1.34-1.08-1.83-1.08-.92,0-1.4.47-1.4,1.35,0,.48.21.92.6,1.32.38.42,1.12.95,2.19,1.58,3.65,2.09,7.83,3.14,12.55,3.14,4.24,0,7.82-.95,10.72-2.83,3.55-2.26,5.33-5.23,5.33-8.89,0-2.34-.64-4.51-1.9-6.51-.74-1.17-1.51-2.2-2.31-3.1Z"/>
            <path class="cls-2" d="m725.78,162.68c-.51,0-1.01.44-1.55,1.32-1.71,2.9-3.91,5.23-6.65,6.95-2.7,1.74-5.47,2.59-8.28,2.59-1.12,0-1.87-.24-2.24-.73-.37-.48-.55-1.47-.55-2.95l.04-2.3v-23.88c0-2.66.2-4.39.59-5.18.42-.79,1.32-1.18,2.73-1.18,2.09,0,4.32.58,6.68,1.77,2.35,1.18,4.09,2.57,5.18,4.16.77,1.14,1.4,1.71,1.89,1.71.38,0,.7-.12.97-.37.26-.24.4-.55.4-.91,0-.71-.45-1.59-1.36-2.63-.9-1.03-2.07-2-3.5-2.9-3.36-2.12-7.29-3.19-11.76-3.19-5.62,0-10.34,1.71-14.18,5.14-4.58,4.06-6.87,9.12-6.87,15.24s2.17,10.89,6.51,14.97c3.8,3.62,8.63,5.43,14.47,5.43,4.27,0,8.27-1.25,12.03-3.76,1.84-1.23,3.43-2.64,4.82-4.2,1.37-1.56,2.07-2.77,2.07-3.63,0-.35-.14-.69-.44-1.01-.3-.33-.63-.48-.98-.48Z"/>
            <path class="cls-2" d="m766.74,162.81c-.34,0-.66.13-.93.36-.3.24-.76.8-1.4,1.68-1.98,2.67-4.32,4.77-7.03,6.28-2.69,1.51-5.43,2.28-8.2,2.28-1.86,0-3.03-.56-3.54-1.65-.26-.57-.38-1.94-.38-4.07v-11.09l4.89-.08,10.72-.02h8.32c.06-7.7-2.7-13.58-8.29-17.63-3.56-2.59-7.56-3.89-11.97-3.89-2.83,0-5.55.57-8.15,1.71-2.65,1.17-4.94,2.81-6.86,4.94-1.67,1.81-2.98,3.97-3.94,6.45-.96,2.48-1.43,4.97-1.43,7.45s.54,5.15,1.62,7.72c1.21,2.92,2.96,5.4,5.21,7.4,3.88,3.4,8.37,5.11,13.43,5.11,2.96,0,6-.68,9.1-2.04,3.1-1.35,5.72-3.11,7.8-5.28,1.59-1.69,2.4-3.05,2.4-4.05,0-.45-.12-.84-.4-1.12-.26-.31-.59-.46-.99-.46Zm-21.48-18.98c0-2.72.17-4.39.49-5.02.53-1.08,1.84-1.6,3.92-1.6s3.42.46,4.08,1.38c.28.38.45.79.5,1.23.05.44.11,1.78.15,4.01v10.41l-4.79.15-4.35-.15v-10.41Z"/>
            <path class="cls-2" d="m485.07,136.9c-5.21,0-9.83,2-12.8,5.08v-6.1h-17.33v39.04h17.33v-25.46c.32-5.11,5.92-9.21,12.8-9.21.92,0,1.67-.75,1.67-1.67s-.75-1.67-1.67-1.67Z"/>
            <path class="cls-2" d="m532.17,156.73l-3.88-6.59-3.52-5.85c2.34-2.33,6.06-3.85,10.25-3.85.91,0,1.66-.75,1.66-1.67s-.75-1.68-1.66-1.68c-4.53,0-8.61,1.51-11.54,3.91h-.02c-2.52,1.86-5.57,4.61-12.22,10.59v-1.93l.15-23.48h-18.34l.04,1.68.17,19.95-.03,9.93-.18,17.23h18.34l-.03-1.67-.08-11.16-.04-6.43v-1.65c1.29,1.94,3.14,5.06,5.57,9.37l6.58,11.54h21.27c-1.71-1.74-3.27-3.63-4.66-5.67-1.38-2.03-4-6.22-7.83-12.56Z"/>
          </g>
        </g>
        <rect class="cls-1" x="33.07" y="33.07" width="736.13" height="165.33"/>
      </g>
      <rect class="cls-1" width="802.26" height="231.47"/>
    </g>
  </g>
</svg>